<svg width="64" height="64" xmlns="http://www.w3.org/2000/svg" enable-background="new 0 0 64 64">

 <g>
  <title>Layer 1</title>
  <circle id="svg_1" fill="#233551" r="32" cy="32" cx="32"/>
  <g stroke="null" id="svg_15">
   <path stroke="null" id="svg_21" d="m47.80839,31.33771l-5.01302,-10.5917c-0.4467,-0.98071 -1.43938,-1.61818 -2.53133,-1.61818l-16.47844,0c-1.09195,0 -2.08462,0.63746 -2.53133,1.61818l-5.01302,10.5917l31.56714,0z" fill="#edb623"/>
   <path stroke="null" id="svg_22" d="m19.12001,29.47436l3.82181,-8.04185c0.1489,-0.34325 0.49634,-0.53939 0.84378,-0.53939l16.47844,0c0.34743,0 0.69487,0.19614 0.84377,0.53939l3.82181,8.04185l-25.80961,0z" fill="#fff"/>
   <path stroke="null" id="svg_23" d="m12.61798,34.08371l0,5.14875l38.76405,0l0,-5.14875c0,-1.5201 -1.24085,-2.74599 -2.7795,-2.74599l-33.20505,0c-1.53865,0 -2.7795,1.22589 -2.7795,2.74599z" fill="#edb623"/>
   <path stroke="null" id="svg_24" d="m12.17127,41.39002l0,-1.81432c0,-0.24518 0.19853,-0.44133 0.4467,-0.44133l38.76405,0c0.24817,0 0.4467,0.19615 0.4467,0.44133l0,1.81432c0,0.24518 -0.19854,0.44132 -0.4467,0.44132l-38.76405,0c-0.24817,0 -0.4467,-0.19614 -0.4467,-0.44132z" fill="#fff"/>
   <path stroke="null" id="svg_25" d="m13.80919,41.83134l0,2.99118c0,0.49035 0.39707,0.93167 0.94304,0.93167l3.62327,0c0.49634,0 0.94304,-0.39229 0.94304,-0.93167l0,-2.99118l-5.50936,0zm30.97153,0l0,2.99118c0,0.49035 0.39707,0.93167 0.94305,0.93167l3.62327,0c0.49634,0 0.94305,-0.39229 0.94305,-0.93167l0,-2.99118l-5.50937,0z" fill="#6a6e7d"/>
   <path stroke="null" id="svg_26" d="m21.99878,36.1432l0,0.58842c0,0.24518 -0.24817,0.49036 -0.49634,0.49036l-5.50936,0c-0.24817,0 -0.49634,-0.24518 -0.49634,-0.49036l0,-2.94213c0,-0.24518 0.24817,-0.49036 0.49634,-0.49036l3.17657,0c1.58828,0 2.82913,1.27493 2.82913,2.84407z" fill="#fff"/>
   <path stroke="null" id="svg_27" d="m18.47477,33.78949c-0.84377,0 -1.48902,0.63747 -1.48902,1.47107c0,0.83361 0.64524,1.47107 1.48902,1.47107c0.84377,0 1.48901,-0.63746 1.48901,-1.47107c0,-0.78457 -0.64524,-1.47107 -1.48901,-1.47107z" fill="#f0c854"/>
   <path stroke="null" id="svg_28" d="m42.05085,36.1432l0,0.58842c0,0.24518 0.24817,0.49036 0.49634,0.49036l5.55899,0c0.24817,0 0.49633,-0.24518 0.49633,-0.49036l0,-2.94213c0,-0.24518 -0.24817,-0.49036 -0.49633,-0.49036l-3.17657,0c-1.63792,0 -2.87877,1.27493 -2.87877,2.84407z" fill="#fff"/>
   <path stroke="null" id="svg_29" d="m45.57486,33.78949c0.84378,0 1.48902,0.63747 1.48902,1.47107c0,0.83361 -0.64524,1.47107 -1.48902,1.47107c-0.84378,0 -1.48901,-0.63746 -1.48901,-1.47107c0,-0.78457 0.64524,-1.47107 1.48901,-1.47107z" fill="#f0c854"/>
   <path stroke="null" id="svg_30" d="m37.1371,34.27985l0,1.96143c0,0.24518 -0.19853,0.49035 -0.49634,0.49035l-9.2319,0c-0.24817,0 -0.49634,-0.24517 -0.49634,-0.49035l0,-1.96143c0,-0.24518 0.24817,-0.49036 0.49634,-0.49036l9.28154,0c0.24817,0 0.4467,0.24518 0.4467,0.49036z" fill="#fff"/>
   <g stroke="null" id="svg_33" opacity="0.15">
    <polygon stroke="null" id="svg_31" points="32.223350524902344,20.942157505485852 26.019119262695312,29.47436044664994 23.587059020996094,29.47436044664994 29.791292190551758,20.942157505485852 " fill="#263a46"/>
    <polygon stroke="null" id="svg_32" points="38.526851654052734,20.942157505485852 32.3226203918457,29.47436044664994 29.89055824279785,29.47436044664994 36.094791412353516,20.942157505485852 " fill="#263a46"/>
   </g>
  </g>
 </g>
</svg>