<svg xmlns="http://www.w3.org/2000/svg" enable-background="new 0 0 64 64" viewBox="0 0 64 64"><circle cx="32" cy="32" r="32" fill="#233551"/><path fill="#edb623" d="M20.68,23.72l2.55-1.64c0.1-0.06,0.22-0.1,0.33-0.1c0.12,0,0.23,0.04,0.33,0.11l2.24,1.58v-5.65h-5.46"/><path fill="#edb623" d="M36.21,18.39c0-0.21-0.17-0.38-0.37-0.38h-8.52v6.79c0,0.22-0.12,0.43-0.32,0.52c-0.08,0.04-0.18,0.06-0.27,0.06c-0.12,0-0.24-0.04-0.34-0.11l-2.85-2.01l-3.13,2.02c-0.09,0.06-0.2,0.09-0.31,0.09c-0.1,0-0.2-0.03-0.28-0.07c-0.19-0.11-0.31-0.3-0.31-0.52v-6.79h-8.52c-0.2,0-0.37,0.17-0.37,0.38v17.54h25.59V18.39z"/><path fill="#fff" d="M14.62 37.37l.29-.26H9v3.85h3.79l.02-.13C12.97 39.5 13.62 38.27 14.62 37.37zM18.37 37.11c-2.45 0-4.44 1.99-4.44 4.44 0 2.45 1.99 4.44 4.44 4.44s4.44-1.99 4.44-4.44C22.81 39.1 20.82 37.11 18.37 37.11zM22.12 37.37c1 .9 1.65 2.13 1.82 3.46l.02.13h14.98v-3.85h-17.1L22.12 37.37zM46.87 37.11c-2.45 0-4.44 1.99-4.44 4.44 0 2.45 1.99 4.44 4.44 4.44 2.32 0 4.24-1.81 4.42-4.11l.02.01v-.3-.07V41.5C51.28 39.08 49.29 37.11 46.87 37.11z"/><path fill="#fff" d="M53.36,28.24h-10.7c-0.33,0-0.59-0.26-0.59-0.59v-7.02h-1.97v20.32h1.18l0.02-0.13c0.36-2.79,2.75-4.9,5.57-4.9c2.82,0,5.21,2.11,5.57,4.9l0.02,0.13h2.52L55,30.83L53.36,28.24z"/><polygon fill="#fff" points="48.55 20.64 43.26 20.64 43.26 27.07 52.62 27.07"/></svg>