<svg width="64" height="64" xmlns="http://www.w3.org/2000/svg" enable-background="new 0 0 64 64">

 <g>
  <title>Layer 1</title>
  <circle id="svg_1" fill="#233551" r="32" cy="32" cx="32"/>
  <path id="svg_4" d="m14.62,37.37l0.29,-0.26l-5.91,0l0,3.85l3.79,0l0.02,-0.13c0.16,-1.33 0.81,-2.56 1.81,-3.46zm3.75,-0.26c-2.45,0 -4.44,1.99 -4.44,4.44c0,2.45 1.99,4.44 4.44,4.44s4.44,-1.99 4.44,-4.44c0,-2.45 -1.99,-4.44 -4.44,-4.44zm3.75,0.26c1,0.9 1.65,2.13 1.82,3.46l0.02,0.13l14.98,0l0,-3.85l-17.1,0l0.28,0.26zm24.75,-0.26c-2.45,0 -4.44,1.99 -4.44,4.44c0,2.45 1.99,4.44 4.44,4.44c2.32,0 4.24,-1.81 4.42,-4.11l0.02,0.01l0,-0.3l0,-0.07l0,-0.02c-0.03,-2.42 -2.02,-4.39 -4.44,-4.39z" fill="#fff"/>
  <path id="svg_5" d="m53.36,28.24l-10.7,0c-0.33,0 -0.59,-0.26 -0.59,-0.59l0,-7.02l-1.97,0l0,20.32l1.18,0l0.02,-0.13c0.36,-2.79 2.75,-4.9 5.57,-4.9c2.82,0 5.21,2.11 5.57,4.9l0.02,0.13l2.52,0l0.02,-10.12l-1.64,-2.59z" fill="#fff"/>
  <polygon id="svg_6" points="48.55 20.64 43.26 20.64 43.26 27.07 52.62 27.07" fill="#fff"/>
  <rect stroke="null" id="svg_7" height="3.13807" width="16.841" y="33.37655" x="21.97488" fill="#edb623"/>
  <path id="svg_9" d="m19.25522,25.94978l16.841,0l0,3.13807l-16.841,0l0,-3.13807z" transform="rotate(55 27.6757 27.5188)" opacity="undefined" stroke="null" fill="#edb623"/>
  <path stroke="null" transform="rotate(-129 19.5653 24.2789)" id="svg_10" d="m18.67805,27.69694l0.33274,-6.83602l1.10909,0l0.33274,6.83602l-1.77456,0z" fill="#edb623"/>
  <rect id="svg_12" height="3.40729" width="1.03011" y="24.10145" x="12.29479" fill="#233551"/>
  <path stroke="null" id="svg_13" d="m15.57937,27.00446l3.03575,0l0,1.08613l-3.03575,0l0,-1.08613z" transform="rotate(-90 17.0972 27.5475)" opacity="undefined" fill="#edb623"/>
 </g>
</svg>